<?xml version="1.0" encoding="utf-8"?>
<!-- Generator: Adobe Illustrator 27.6.1, SVG Export Plug-In . SVG Version: 6.00 Build 0)  -->
<svg version="1.1" id="Слой_1" xmlns="http://www.w3.org/2000/svg" xmlns:xlink="http://www.w3.org/1999/xlink" x="0px" y="0px"
	 viewBox="0 0 200 200" style="enable-background:new 0 0 200 200;" xml:space="preserve">
<style type="text/css">
	.st0{fill:#15212E;}
	.st1{fill:#FFB520;}
	.st2{fill:#FFFFFF;}
</style>
<g>
	<path class="st0" d="M144.5,0h-89C24.9,0,0,24.9,0,55.5v89C0,175.1,24.9,200,55.5,200h89c30.6,0,55.5-24.9,55.5-55.5v-89
		C200,24.9,175.1,0,144.5,0z"/>
	<polygon class="st1" points="122.8,64.6 127.3,48.8 79.4,48.8 71.5,48.8 61.1,48.8 40.6,120.4 58.9,120.4 66.7,93.2 111.3,93.2 
		115.8,77.5 71.2,77.5 74.9,64.6 	"/>
	<g>
		<path class="st2" d="M138.3,107.6h-29.2l-4.5,15.7h29.2l-0.7,2.4c-1.3,4.5-5.4,7.5-10,7.5H91.5c-2.9,0-5-2.8-4.2-5.5l7.8-27.1
			H76.8l-7.4,25.6c-3.3,11.4,5.3,22.7,17.1,22.7h36.2c13,0,24.4-8.6,27.9-21l5.8-20.3h-10.7H138.3z"/>
		<path class="st2" d="M141.4,77.5h-17.9l-4.5,15.7h15.9c3.8,0,6.5,3.6,5.4,7.2l0,0h18.3l0-0.1C162,88.9,153.4,77.5,141.4,77.5z"/>
	</g>
	<g>
		<path class="st2" d="M144.5,186.1h-89c-23,0-41.6-18.7-41.6-41.6v-89c0-23,18.7-41.6,41.6-41.6h89c23,0,41.6,18.7,41.6,41.6v89
			C186.1,167.4,167.4,186.1,144.5,186.1z M55.5,21.3c-18.9,0-34.2,15.3-34.2,34.2v89c0,18.9,15.3,34.2,34.2,34.2h89
			c18.9,0,34.2-15.3,34.2-34.2v-89c0-18.9-15.3-34.2-34.2-34.2H55.5z"/>
	</g>
</g>
</svg>
